<svg xmlns="http://www.w3.org/2000/svg" version="1.1" xmlns:xlink="http://www.w3.org/1999/xlink" xmlns:svgjs="http://svgjs.com/svgjs" width="1920" height="1080" preserveAspectRatio="none" viewBox="0 0 1920 1080"><g mask="url(&quot;#SvgjsMask2073&quot;)" fill="none"><rect width="1920" height="1080" x="0" y="0" fill="url(#SvgjsLinearGradient2074)"></rect><path d="M1920 0L1118.6 0L1920 414.41z" fill="rgba(255, 255, 255, .1)"></path><path d="M1118.6 0L1920 414.41L1920 490.38L939.1299999999999 0z" fill="rgba(255, 255, 255, .075)"></path><path d="M939.13 0L1920 490.38L1920 668.61L867.89 0z" fill="rgba(255, 255, 255, .05)"></path><path d="M867.8900000000001 0L1920 668.61L1920 835.63L649.9000000000001 0z" fill="rgba(255, 255, 255, .025)"></path><path d="M0 1080L948.38 1080L0 839.72z" fill="rgba(0, 0, 0, .1)"></path><path d="M0 839.72L948.38 1080L1170.69 1080L0 621.89z" fill="rgba(0, 0, 0, .075)"></path><path d="M0 621.89L1170.69 1080L1456.3400000000001 1080L0 264.15999999999997z" fill="rgba(0, 0, 0, .05)"></path><path d="M0 264.15999999999997L1456.3400000000001 1080L1737.23 1080L0 125.74999999999997z" fill="rgba(0, 0, 0, .025)"></path></g><defs><mask id="SvgjsMask2073"><rect width="1920" height="1080" fill="#ffffff"></rect></mask><linearGradient x1="89.06%" y1="119.44%" x2="10.94%" y2="-19.44%" gradientUnits="userSpaceOnUse" id="SvgjsLinearGradient2074"><stop stop-color="rgba(14, 42, 71, 1)" offset="0"></stop><stop stop-color="rgba(0, 69, 158, 1)" offset="0"></stop></linearGradient></defs></svg>